imdb : http://www.imdb.com/title/tt0109686/
Tagline: What the one doesn't have, the other is missing.
Plot: The cross-country adventures of two good-hearted but incredibly stupid friends.
Total Size : 1.01 GB


General
Complete name : Dumb and Dumber 1994 DVDRip [H.264 - MP4 - AAC] ~Mindbreaker.mp4
Format : H.264/AAC/MP4 - Anamophic
Source : DVD (ripped by unknow)
File size : 1.01 GiB
Duration : 1h 42mn
Overall bit rate : 1 414 Kbps


Video
ID : 1
Format : AVC
Format/Info : Advanced Video Codec
Format profile : Main@L3.0
Duration : 1h 42mn
Bit rate : 1250 Kbps
Width : 718 pixels
Height : 552 pixels
Display aspect ratio : 1.850
Frame rate : 25 fps
Bits/(Pixel*Frame) : 0.126
Stream size : 914 MiB (88%)
Writing library : x264 core 79

Audio
ID : 2
Format : AAC
Format/Info : Advanced Audio Codec
Format profile : LC
Duration : 1h 42mn
Bit rate : 160 Kbps
Channel(s) : 2 channels
Sampling rate : 48.0 KHz
Stream size : 117 MiB (11%)
Language : English

Subtitle
Format : SubRip
Language : Dutch & English
Source : ondertitels.com & opensubtitles.org 
http://genesis.1337x.org:1337/announce
http://tracker.openbittorrent.com/announce
http://nemesis.1337x.org/announce


